# File created by Blade
# Date/Time:  Tue Apr 07 20:17:56 2015
# Frame Rate: 120.000 fps
#------------------------------------------------------
:FULLY-SPECIFIED
:DEGREES
1556
root 6.548268 34.235323 -10.796737 26.137304 -16.219538 -31.320134
Spine -8.848121 5.920726 20.221872
Head 22.041029 -0.727772 9.554392
LeftShoulder -24.797334 43.916846 19.395688
LeftArm 57.090726 -53.396606 -73.216750
LeftForeArm -1.756284 -0.000000 4.487945
LeftHand 13.138795 -0.000000 10.376169
LeftHandThumb1 -26.253704 0.000000 33.147579
RightShoulder -9.266602 6.075857 -27.812027
RightArm 0.462584 37.343799 48.065097
RightForeArm 19.169804 -0.000000 19.995746
RightHand 5.223808 -0.000000 -11.705281
RightHandThumb1 -24.326973 -0.000000 -32.862282
LeftUpLeg -16.173062 2.497363 25.514867
LeftLeg 4.728752 -0.000000 -0.000000
LeftFoot -7.649905 15.523687 -14.208002
LeftToeBase -7.303684 -0.000000 0.000000
RightUpLeg -42.840419 -15.266040 -9.517828
RightLeg 32.553588 -0.000000 -0.000000
RightFoot 40.366104 -6.750634 3.213009
RightToeBase 35.120966 -0.000000 -0.000000
1557
root 6.501339 34.215949 -10.794397 25.946562 -16.185355 -30.894114
Spine -8.853056 5.882122 19.706867
Head 22.277998 -0.896885 9.650695
LeftShoulder -24.733308 43.846025 19.570070
LeftArm 56.928823 -53.588327 -72.813808
LeftForeArm -1.853260 -0.000000 4.614587
LeftHand 13.111066 -0.000000 10.432385
LeftHandThumb1 -26.253704 0.000000 33.147579
RightShoulder -9.320331 5.934954 -27.707978
RightArm 0.673640 37.033569 48.054910
RightForeArm 18.946454 -0.000000 19.789461
RightHand 5.208060 -0.000000 -11.644299
RightHandThumb1 -24.326973 -0.000000 -32.862282
LeftUpLeg -16.249805 2.274142 25.228520
LeftLeg 4.906013 -0.000000 -0.000000
LeftFoot -7.695230 15.488289 -14.108589
LeftToeBase -7.409119 -0.000000 0.000000
RightUpLeg -42.021310 -14.333554 -8.160443
RightLeg 31.094531 -0.000000 -0.000000
RightFoot 39.283855 -6.488099 4.446247
RightToeBase 34.742534 -0.000000 -0.000000
1558
root 6.449782 34.197889 -10.789836 25.726443 -16.153024 -30.424226
Spine -8.854717 5.826391 19.122399
Head 22.536232 -1.078027 9.785417
LeftShoulder -24.681244 43.801218 19.734645
LeftArm 56.857908 -53.806621 -72.462367
LeftForeArm -1.932412 -0.000000 4.706207
LeftHand 13.100369 -0.000000 10.377447
LeftHandThumb1 -26.253704 0.000000 33.147579
RightShoulder -9.372029 5.843108 -27.587891
RightArm 0.790649 36.584155 48.022822
RightForeArm 18.928771 0.000000 19.609434
RightHand 5.337075 -0.000000 -11.630796
RightHandThumb1 -24.326973 -0.000000 -32.862282
LeftUpLeg -16.320437 1.931423 24.939803
LeftLeg 5.103959 -0.000000 -0.000000
LeftFoot -7.782587 15.509653 -14.157330
LeftToeBase -7.579367 -0.000000 0.000000
RightUpLeg -41.211236 -13.455463 -6.832857
RightLeg 29.786532 -0.000000 -0.000000
RightFoot 37.821200 -6.204199 5.772772
RightToeBase 34.101213 -0.000000 -0.000000
1559
root 6.393077 34.180877 -10.788385 25.500074 -16.020211 -29.913179
Spine -8.888921 5.698401 18.524773
Head 22.773775 -1.292623 9.919020
LeftShoulder -24.550696 43.700252 19.969965
LeftArm 56.700548 -54.039355 -72.051895
LeftForeArm -2.029915 -0.000000 4.787948
LeftHand 13.091094 -0.000000 10.420582
LeftHandThumb1 -26.253704 0.000000 33.147579
RightShoulder -9.448252 5.726626 -27.480468
RightArm 0.886735 36.082576 48.028156
RightForeArm 18.983583 -0.000000 19.466960
RightHand 5.417142 -0.000000 -11.527726
RightHandThumb1 -24.326973 -0.000000 -32.862282
LeftUpLeg -16.478332 1.520513 24.664268
LeftLeg 5.352050 -0.000000 -0.000000
LeftFoot -7.864520 15.530021 -14.291839
LeftToeBase -7.909260 -0.000000 0.000000
RightUpLeg -40.384159 -12.640002 -5.539883
RightLeg 28.590074 -0.000000 -0.000000
RightFoot 35.971618 -5.902394 7.238038
RightToeBase 33.535520 -0.000000 -0.000000
1560
root 6.333509 34.162787 -10.780737 25.241294 -15.873054 -29.375752
Spine -8.915815 5.529085 17.929108
Head 23.043138 -1.499840 9.978853
LeftShoulder -24.422835 43.584709 20.166497
LeftArm 56.619311 -54.333359 -71.696122
LeftForeArm -2.000027 -0.000000 4.799049
LeftHand 13.095193 -0.000000 10.464477
LeftHandThumb1 -26.253704 0.000000 33.147579
RightShoulder -9.508464 5.536906 -27.438262
RightArm 1.043936 35.799413 48.193539
RightForeArm 18.904024 0.000000 19.350278
RightHand 5.484249 -0.000000 -11.413649
RightHandThumb1 -24.326973 -0.000000 -32.862282
LeftUpLeg -16.613740 1.195216 24.347929
LeftLeg 5.611405 -0.000000 -0.000000
LeftFoot -7.942637 15.435457 -14.418152
LeftToeBase -8.230957 -0.000000 0.000000
RightUpLeg -39.494493 -11.799258 -4.339657
RightLeg 27.454659 -0.000000 -0.000000
RightFoot 33.793006 -5.604874 8.917969
RightToeBase 33.269759 -0.000000 -0.000000
1561
root 6.266794 34.142663 -10.763908 24.882826 -15.709928 -28.803111
Spine -8.872560 5.320755 17.309952
Head 23.318012 -1.666432 10.012907
LeftShoulder -24.324945 43.532148 20.316760
LeftArm 56.569092 -54.585875 -71.291004
LeftForeArm -2.053240 0.000000 4.795131
LeftHand 13.103030 -0.000000 10.443779
LeftHandThumb1 -26.253704 0.000000 33.147579
RightShoulder -9.579780 5.367948 -27.429621
RightArm 1.164572 35.527176 48.397942
RightForeArm 18.902928 -0.000000 19.278511
RightHand 5.432144 -0.000000 -11.330966
RightHandThumb1 -24.326973 -0.000000 -32.862282
LeftUpLeg -16.644734 0.918556 23.983005
LeftLeg 5.839827 -0.000000 -0.000000
LeftFoot -8.015047 15.229358 -14.543434
LeftToeBase -7.959103 -0.000000 0.000000
RightUpLeg -38.559394 -11.075113 -3.174637
RightLeg 26.541753 -0.000000 -0.000000
RightFoot 31.386451 -4.806247 10.432929
RightToeBase 32.600138 -0.000000 -0.000000
1562
root 6.202439 34.120109 -10.748051 24.520585 -15.494797 -28.200137
Spine -8.842006 5.082303 16.707293
Head 23.577954 -1.846817 9.964556
LeftShoulder -24.219645 43.481049 20.470221
LeftArm 56.547576 -54.794810 -70.890046
LeftForeArm -2.123536 -0.000000 4.733316
LeftHand 13.116641 -0.000000 10.600965
LeftHandThumb1 -26.253704 0.000000 33.147579
RightShoulder -9.642298 5.258659 -27.476403
RightArm 1.166985 35.317030 48.555316
RightForeArm 18.711528 0.000000 19.177631
RightHand 5.522165 -0.000000 -10.904557
RightHandThumb1 -24.326973 -0.000000 -32.862282
LeftUpLeg -16.704194 0.722054 23.567622
LeftLeg 6.063189 -0.000000 -0.000000
LeftFoot -8.040944 14.929541 -14.604073
LeftToeBase -8.276318 -0.000000 0.000000
RightUpLeg -37.674776 -10.430565 -2.062079
RightLeg 25.803578 -0.000000 -0.000000
RightFoot 28.775021 -3.908867 11.621704
RightToeBase 31.456763 -0.000000 -0.000000
1563
root 6.135527 34.100850 -10.735371 24.223349 -15.227564 -27.678348
Spine -8.853181 4.799485 16.245388
Head 23.866704 -1.898052 9.801740
LeftShoulder -24.176128 43.395126 20.543393
LeftArm 56.500079 -54.987601 -70.453308
LeftForeArm -2.149800 -0.000000 4.665896
LeftHand 13.047984 -0.000000 10.651801
LeftHandThumb1 -26.253704 0.000000 33.147579
RightShoulder -9.647380 5.120295 -27.562573
RightArm 1.252484 35.212379 48.787709
RightForeArm 18.556986 -0.000000 19.067649
RightHand 5.513414 -0.000000 -10.706245
RightHandThumb1 -24.326973 -0.000000 -32.862282
LeftUpLeg -16.818220 0.655480 23.210691
LeftLeg 6.302676 -0.000000 -0.000000
LeftFoot -8.035321 14.545413 -14.572654
LeftToeBase -8.476971 -0.000000 0.000000
RightUpLeg -36.767008 -9.700615 -0.918493
RightLeg 24.984507 -0.000000 -0.000000
RightFoot 26.138853 -3.053650 12.536835
RightToeBase 30.059059 -0.000000 -0.000000
1564
root 6.066074 34.081774 -10.719308 23.894804 -14.892448 -27.192474
Spine -8.834188 4.536280 15.862133
Head 24.144669 -2.023185 9.575973
LeftShoulder -24.069713 43.311400 20.663379
LeftArm 56.520509 -55.120250 -70.090208
LeftForeArm -2.183545 -0.000000 4.588854
LeftHand 12.962343 -0.000000 10.855258
LeftHandThumb1 -26.253704 0.000000 33.147579
RightShoulder -9.706203 4.987532 -27.658961
RightArm 1.334525 35.031675 48.952213
RightForeArm 18.338853 -0.000000 18.887720
RightHand 5.564601 -0.000000 -10.536857
RightHandThumb1 -24.326973 -0.000000 -32.862282
LeftUpLeg -16.885816 0.476357 22.921778
LeftLeg 6.497673 -0.000000 -0.000000
LeftFoot -8.060407 14.229253 -14.514424
LeftToeBase -8.617640 -0.000000 0.000000
RightUpLeg -35.903891 -9.169009 0.340187
RightLeg 24.384351 -0.000000 -0.000000
RightFoot 23.457446 -2.210015 13.023575
RightToeBase 28.401399 -0.000000 -0.000000
